Down is a song by British artist Jay Sean. The song was released in North America as his debut single from his debut album there, All or Nothing. In other markets, including the UK, the song serves as Jay Sean's lead single from his third studio album. The single features American rapper and label mate Lil Wayne and is produced by J remy and Bobby Bass. "Down" is the seventh-best selling single of 2009, having sold more than three million digital copies in the United States alone, and has been certified Platinum in several countries.[2] The song has sold six million copies worldwide, and also received a large airplay of two billion listener impressions on radio worldwide.

The track was released to US radio on 31 May 2009, and digital retailers on 30 June 2009. "Down" hit number one on the Billboard Hot 100 chart in the issue dated 17 October 2009, knocking The Black Eyed Peas off the top of the chart after their 26 week reign at number one. This made Jay Sean the first British act to score a Billboard Hot 100 number-one single since Coldplay's "Viva la Vida" in 2008, and the fourth British act overall this decade. The song has also made him the first UK Urban act ever to top Billboard's Hot 100, the ninth (second British) male solo performer to top the US charts with his debut single in the US, and the first British act to have reached #1 in the US and not in the UK with a song since Seal's Kiss From A Rose in 1995. It is also the best-selling single by a British/European male artist in North America since Elton John's "Candle in the Wind" in 1997, and the first by an British Asian artist since Freddie Mercury in 1980.

Video
ID                               : 1
Format                           : AVC
Format/Info                      : Advanced Video Codec
Format profile                   : High@L4.0
Format settings, CABAC           : Yes
Format settings, ReFrames        : 3 frames
Codec ID                         : V_MPEG4/ISO/AVC
Duration                         : 3mn 41s
Bit rate mode                    : Variable
Bit rate                         : 6 787 Kbps
Maximum bit rate                 : 25.0 Mbps
Width                            : 1 920 pixels
Height                           : 1 080 pixels
Display aspect ratio             : 16:9
Frame rate                       : 25.000 fps
Color space                      : YUV
Chroma subsampling               : 4:2:0
Bit depth                        : 8 bits
Scan type                        : Progressive
Bits/(Pixel*Frame)               : 0.131
Stream size                      : 176 MiB (93%)
Writing library                  : x264 core 105 r1732 2b04482
Language                         : English

Audio
ID                               : 2
Format                           : AC-3
Format/Info                      : Audio Coding 3
Mode extension                   : CM (complete main)
Codec ID                         : A_AC3
Duration                         : 3mn 41s
Bit rate mode                    : Constant
Bit rate                         : 384 Kbps
Channel(s)                       : 2 channels
Channel positions                : Front: L R
Sampling rate                    : 48.0 KHz
Bit depth                        : 16 bits
Compression mode                 : Lossy
Stream size                      : 10.2 MiB (5%)
Language                         : English

